<?xml version="1.0" standalone="no"?>
<!DOCTYPE svg PUBLIC "-//W3C//DTD SVG 20010904//EN"
 "http://www.w3.org/TR/2001/REC-SVG-20010904/DTD/svg10.dtd">
<svg version="1.0" xmlns="http://www.w3.org/2000/svg"
 width="240.000000pt" height="240.000000pt" viewBox="0 0 240.000000 240.000000"
 preserveAspectRatio="xMidYMid meet">
<metadata>
Created by potrace 1.14, written by Peter Selinger 2001-2017
</metadata>
<g transform="translate(0.000000,240.000000) scale(0.100000,-0.100000)"
fill="#000000" stroke="none">
<path d="M1295 1988 c-10 -30 -395 -1566 -395 -1577 0 -8 29 -11 102 -9 l102
3 198 785 c109 432 198 791 198 798 0 9 -27 12 -100 12 -72 0 -102 -4 -105
-12z"/>
<path d="M398 1503 l-398 -196 0 -107 0 -106 383 -189 c210 -103 390 -192 400
-197 16 -8 17 0 17 102 l0 110 -275 137 c-151 76 -275 140 -275 143 0 3 124
67 275 143 l275 137 0 110 c0 60 -1 110 -2 110 -2 0 -182 -89 -400 -197z"/>
<path d="M1600 1590 l0 -110 275 -137 c151 -76 275 -140 275 -143 0 -3 -124
-67 -275 -143 l-275 -137 0 -110 c0 -102 1 -110 18 -102 9 5 189 94 400 197
l382 189 0 106 0 106 -382 189 c-211 103 -391 192 -400 197 -17 8 -18 0 -18
-102z"/>
</g>
</svg>
